<?xml version="1.0" encoding="UTF-8" standalone="no"?>
<svg
   width="512"
   height="512"
   version="1.1"
   id="svg1729"
   sodipodi:docname="logotipo.svg"
   inkscape:version="1.2 (dc2aedaf03, 2022-05-15)"
   xmlns:inkscape="http://www.inkscape.org/namespaces/inkscape"
   xmlns:sodipodi="http://sodipodi.sourceforge.net/DTD/sodipodi-0.dtd"
   xmlns:xlink="http://www.w3.org/1999/xlink"
   xmlns="http://www.w3.org/2000/svg"
   xmlns:svg="http://www.w3.org/2000/svg">
  <sodipodi:namedview
     id="namedview1731"
     pagecolor="#ffffff"
     bordercolor="#000000"
     borderopacity="0.25"
     inkscape:showpageshadow="2"
     inkscape:pageopacity="0.0"
     inkscape:pagecheckerboard="0"
     inkscape:deskcolor="#d1d1d1"
     showgrid="false"
     inkscape:zoom="1"
     inkscape:cx="57"
     inkscape:cy="-20.5"
     inkscape:window-width="2560"
     inkscape:window-height="1381"
     inkscape:window-x="0"
     inkscape:window-y="0"
     inkscape:window-maximized="1"
     inkscape:current-layer="svg1729" />
  <defs
     id="defs1672">
    <linearGradient
       id="a"
       x1="26.665924"
       x2="98.21077"
       y1="6.3097887"
       y2="113.68658"
       gradientTransform="scale(1.0000959,0.99990416)"
       gradientUnits="userSpaceOnUse">
      <stop
         offset="0%"
         stop-color="#FF5F94"
         id="stop1576" />
      <stop
         offset="100%"
         stop-color="#EC454F"
         id="stop1578" />
    </linearGradient>
    <linearGradient
       id="f"
       x1="43.244835"
       x2="63.135612"
       y1="119.5606"
       y2="123.05198"
       gradientTransform="scale(1.5504279,0.64498323)"
       gradientUnits="userSpaceOnUse">
      <stop
         offset="0%"
         stop-color="#EF4663"
         id="stop1581" />
      <stop
         offset="100%"
         stop-color="#F44880"
         stop-opacity="0"
         id="stop1583" />
    </linearGradient>
    <linearGradient
       id="h"
       x1="91.261101"
       x2="113.84783"
       y1="29.803692"
       y2="58.756542"
       gradientTransform="scale(0.96129942,1.0402586)"
       gradientUnits="userSpaceOnUse">
      <stop
         offset="0%"
         stop-color="#EF4663"
         id="stop1586" />
      <stop
         offset="100%"
         stop-color="#F44880"
         stop-opacity="0"
         id="stop1588" />
    </linearGradient>
    <linearGradient
       id="i"
       x1="90.43087"
       x2="84.65316"
       y1="25.586369"
       y2="5.4678788"
       gradientTransform="scale(0.69487705,1.4391035)"
       gradientUnits="userSpaceOnUse">
      <stop
         offset="0%"
         stop-color="#EF4663"
         id="stop1591" />
      <stop
         offset="100%"
         stop-color="#F44880"
         stop-opacity="0"
         id="stop1593" />
    </linearGradient>
    <linearGradient
       id="j"
       x1="33.323769"
       x2="1.8273398"
       y1="45.50856"
       y2="49.192291"
       gradientTransform="scale(1.2673481,0.78904921)"
       gradientUnits="userSpaceOnUse">
      <stop
         offset="0%"
         stop-color="#EF4663"
         id="stop1596" />
      <stop
         offset="100%"
         stop-color="#F44880"
         stop-opacity="0"
         id="stop1598" />
    </linearGradient>
    <linearGradient
       id="k"
       x1="22.017248"
       x2="2.7628253"
       y1="97.345657"
       y2="98.592842"
       gradientTransform="scale(1.5152701,0.65994837)"
       gradientUnits="userSpaceOnUse">
      <stop
         offset="0%"
         stop-color="#EF4663"
         id="stop1601" />
      <stop
         offset="100%"
         stop-color="#F44880"
         stop-opacity="0"
         id="stop1603" />
    </linearGradient>
    <linearGradient
       id="l"
       x1="54.066826"
       x2="56.323662"
       y1="62.237965"
       y2="76.566872"
       gradientTransform="scale(0.66292241,1.5084722)"
       gradientUnits="userSpaceOnUse">
      <stop
         offset="0%"
         stop-color="#EF4663"
         id="stop1606" />
      <stop
         offset="100%"
         stop-color="#F44880"
         stop-opacity="0"
         id="stop1608" />
    </linearGradient>
    <linearGradient
       id="m"
       x1="113.74387"
       x2="115.44509"
       y1="47.240784"
       y2="65.951241"
       gradientTransform="scale(0.57827614,1.7292776)"
       gradientUnits="userSpaceOnUse">
      <stop
         offset="0%"
         stop-color="#EF4663"
         id="stop1611" />
      <stop
         offset="100%"
         stop-color="#F44880"
         stop-opacity="0"
         id="stop1613" />
    </linearGradient>
    <linearGradient
       id="o"
       x1="30.735601"
       x2="60"
       y1="8.0760002"
       y2="120"
       gradientUnits="userSpaceOnUse">
      <stop
         offset="0%"
         stop-color="#FF5E92"
         id="stop1616" />
      <stop
         offset="100%"
         stop-color="#ED4653"
         id="stop1618" />
    </linearGradient>
    <linearGradient
       id="q"
       x1="0.74487996"
       x2="-2.07458"
       y1="0.89582002"
       y2="-0.81619">
      <stop
         offset="0%"
         stop-color="#DD1E5B"
         id="stop1621" />
      <stop
         offset="100%"
         stop-color="#EFC7D8"
         id="stop1623" />
    </linearGradient>
    <linearGradient
       id="r"
       x1="17.260811"
       x2="19.667253"
       y1="47.28603"
       y2="9.107069"
       gradientTransform="matrix(-0.63016068,0,0,1.5868969,86.387,51.7)"
       gradientUnits="userSpaceOnUse">
      <stop
         offset="0%"
         stop-color="#F4487D"
         stop-opacity=".16"
         id="stop1626" />
      <stop
         offset="100%"
         stop-color="#FC3A78"
         id="stop1628" />
    </linearGradient>
    <linearGradient
       id="u"
       x1="9.3950396"
       x2="4.5419998"
       y1="4.5419998"
       y2="9.9169197"
       gradientUnits="userSpaceOnUse">
      <stop
         offset="0%"
         stop-color="#FB3B78"
         id="stop1631" />
      <stop
         offset="100%"
         stop-color="#EFC7D8"
         id="stop1633" />
    </linearGradient>
    <radialGradient
       id="b"
       cx="60"
       cy="0"
       r="83.758804"
       fx="60"
       fy="0"
       gradientUnits="userSpaceOnUse">
      <stop
         offset="0%"
         stop-color="#283F62"
         id="stop1636" />
      <stop
         offset="100%"
         stop-color="#101A2A"
         id="stop1638" />
    </radialGradient>
    <radialGradient
       id="e"
       cx="73.339203"
       cy="142.5072"
       r="66.1884"
       fx="73.339203"
       fy="142.5072"
       gradientUnits="userSpaceOnUse">
      <stop
         offset="0%"
         stop-color="#D12A6F"
         id="stop1641" />
      <stop
         offset="100%"
         stop-color="#83234B"
         stop-opacity="0"
         id="stop1643" />
    </radialGradient>
    <radialGradient
       id="n"
       cx="0.46522"
       cy="0"
       r="1.35558"
       fx="0.46522"
       fy="0">
      <stop
         offset="0%"
         stop-color="#6BA0E2"
         id="stop1646" />
      <stop
         offset="30.516%"
         stop-color="#54729A"
         id="stop1648" />
      <stop
         offset="52.562%"
         stop-color="#385076"
         id="stop1650" />
      <stop
         offset="100%"
         stop-color="#131E32"
         id="stop1652" />
    </radialGradient>
    <radialGradient
       id="p"
       cx="58.158848"
       cy="23.342331"
       r="103.136"
       fx="58.158848"
       fy="23.342331"
       gradientTransform="scale(0.97260002,1.0281719)"
       gradientUnits="userSpaceOnUse">
      <stop
         offset="0%"
         stop-color="#6BA0E2"
         id="stop1655" />
      <stop
         offset="30.516%"
         stop-color="#54729A"
         id="stop1657" />
      <stop
         offset="52.562%"
         stop-color="#385076"
         id="stop1659" />
      <stop
         offset="100%"
         stop-color="#131E32"
         id="stop1661" />
    </radialGradient>
    <filter
       id="s"
       width="1.8334"
       height="1.8334"
       x="-0.41670001"
       y="-0.41670001"
       filterUnits="objectBoundingBox">
      <feGaussianBlur
         in="SourceGraphic"
         stdDeviation="2.778"
         id="feGaussianBlur1664" />
    </filter>
    <filter
       id="t"
       width="2.6668"
       height="2.6668"
       x="-0.83340001"
       y="-0.83340001"
       filterUnits="objectBoundingBox">
      <feGaussianBlur
         in="SourceGraphic"
         stdDeviation="2.778"
         id="feGaussianBlur1667" />
    </filter>
    <circle
       id="c"
       cx="60"
       cy="60"
       r="60" />
    <circle
       id="d"
       cx="60"
       cy="60"
       r="60" />
    <radialGradient
       inkscape:collect="always"
       xlink:href="#n"
       id="radialGradient2214"
       cx="56.848099"
       cy="8"
       fx="56.848099"
       fy="8"
       r="142.33591"
       gradientUnits="userSpaceOnUse" />
    <radialGradient
       inkscape:collect="always"
       xlink:href="#n"
       id="radialGradient2216"
       cx="55.965523"
       cy="2"
       fx="55.965523"
       fy="2"
       r="157.24728"
       gradientUnits="userSpaceOnUse" />
    <mask
       id="g"
       fill="#ffffff">
      <use
         xlink:href="#d"
         id="use1682" />
    </mask>
  </defs>
  <g
     id="g873"
     transform="matrix(4.2666667,0,0,4.2666667,-2e-6,-2e-6)">
    <g
       id="g1678"
       style="fill:none;fill-rule:evenodd">
      <circle
         cx="59.5"
         cy="59.5"
         r="58.5"
         fill="#000000"
         fill-opacity="0.15"
         id="circle1674" />
      <path
         fill="url(#a)"
         fill-rule="nonzero"
         d="M 59.529,119.032 A 59.22,59.22 0 0 1 26.259,108.87 59.7,59.7 0 0 1 4.699,82.688 59.428,59.428 0 0 1 10.186,26.258 59.659,59.659 0 0 1 36.368,4.7 a 59.425,59.425 0 0 1 56.43,5.486 59.685,59.685 0 0 1 21.558,26.182 59.428,59.428 0 0 1 -5.487,56.43 59.677,59.677 0 0 1 -26.181,21.559 59.15,59.15 0 0 1 -23.16,4.675 z m 0,-117.025 A 57.249,57.249 0 0 0 27.368,11.83 57.677,57.677 0 0 0 6.528,37.137 57.444,57.444 0 0 0 11.83,91.683 57.69,57.69 0 0 0 37.137,112.523 57.445,57.445 0 0 0 91.683,107.219 57.685,57.685 0 0 0 112.523,81.912 57.443,57.443 0 0 0 107.219,27.367 57.69,57.69 0 0 0 81.912,6.527 57.164,57.164 0 0 0 59.528,2.007 Z"
         id="path1676"
         style="fill:url(#a)" />
    </g>
    <use
       fill="url(#b)"
       xlink:href="#c"
       id="use1680"
       style="fill:url(#b);fill-rule:evenodd" />
    <path
       stroke="url(#h)"
       stroke-linecap="round"
       stroke-linejoin="round"
       d="M 88.72,32.442 V 24.43 h 9.993 V 42.526 H 83.697 v 4.698 h 7.508 v 13.398 h 25.861"
       mask="url(#g)"
       opacity="0.235"
       id="path1689"
       style="fill:none;fill-rule:evenodd;stroke:url(#h)" />
    <path
       stroke="url(#f)"
       stroke-linecap="round"
       stroke-linejoin="round"
       d="m 67.548,70.68 h 7.787 v 8.904 h 10.731 v 5.932 h 18.549"
       mask="url(#g)"
       opacity="0.235"
       id="path1687"
       style="fill:none;fill-rule:evenodd;stroke:url(#f)" />
    <path
       stroke="url(#j)"
       stroke-linecap="round"
       stroke-linejoin="round"
       d="M 40.641,47.224 H 31.915 V 37.079 h 4.85 V 32.087 H 21.75 V 26.024 H 18 V 44 H 9.984 v -7.376 h -4"
       mask="url(#g)"
       opacity="0.235"
       id="path1693"
       style="fill:none;fill-rule:evenodd;stroke:url(#j)" />
    <use
       fill="url(#e)"
       xlink:href="#d"
       id="use1685"
       style="fill:url(#e);fill-rule:evenodd" />
    <path
       stroke="url(#k)"
       stroke-linecap="round"
       stroke-linejoin="round"
       d="M 31.915,63.629 H 24.518 V 70.68 H 16.785 V 63.629 H 9.201 v -5.42 H 1.985"
       mask="url(#g)"
       opacity="0.235"
       id="path1695"
       style="fill:none;fill-rule:evenodd;stroke:url(#k)" />
    <path
       stroke="url(#l)"
       stroke-linecap="round"
       stroke-linejoin="round"
       d="m 39.346,91.649 h -7.431 v 8.611 h 9.701 v 14.739"
       mask="url(#g)"
       opacity="0.235"
       id="path1697"
       style="fill:none;fill-rule:evenodd;stroke:url(#l)" />
    <path
       stroke="url(#m)"
       stroke-linecap="round"
       stroke-linejoin="round"
       d="m 60.788,78.098 h 6.76 V 88.5 h -3.38 v 11.811 h 7.809 v 13.237"
       mask="url(#g)"
       opacity="0.235"
       id="path1699"
       style="fill:none;fill-rule:evenodd;stroke:url(#m)" />
    <path
       stroke="url(#i)"
       stroke-linecap="round"
       stroke-linejoin="round"
       d="m 70.067,38.639 h -9.279 v -9.946 h 5.595 v -7.5 H 52.41 V 1"
       mask="url(#g)"
       opacity="0.235"
       id="path1691"
       style="fill:none;fill-rule:evenodd;stroke:url(#i)" />
    <path
       fill="url(#n)"
       d="M 60.5,8 C 89.495,8 113,31.505 113,60.5 113,89.495 89.495,113 60.5,113 31.505,113 8,89.495 8,60.5 8,31.505 31.505,8 60.5,8 Z m 0,3 C 33.162,11 11,33.162 11,60.5 11,87.838 33.162,110 60.5,110 87.838,110 110,87.838 110,60.5 110,33.162 87.838,11 60.5,11 Z"
       mask="url(#g)"
       id="path1701"
       style="fill:url(#radialGradient2214);fill-rule:evenodd" />
    <path
       fill="url(#n)"
       d="m 60,2 c 32.033,0 58,25.967 58,58 0,32.033 -25.967,58 -58,58 C 27.967,118 2,92.033 2,60 2,27.967 27.967,2 60,2 Z m 0.5,3 C 29.848,5 5,29.848 5,60.5 5,91.152 29.848,116 60.5,116 91.152,116 116,91.152 116,60.5 116,29.848 91.152,5 60.5,5 Z"
       mask="url(#g)"
       id="path1703"
       style="fill:url(#radialGradient2216);fill-rule:evenodd" />
    <circle
       cx="60"
       cy="60"
       r="59"
       stroke="url(#o)"
       stroke-width="2"
       id="circle1705"
       style="fill:none;fill-rule:evenodd;stroke:url(#o)" />
    <g
       transform="matrix(0.37736409,0,0,0.37736409,-2.385635,-0.8574284)"
       id="g1035"
       style="fill:#ff1e67;fill-opacity:1">
      <path
         id="path895"
         style="color:#000000;font-style:normal;font-variant:normal;font-weight:normal;font-stretch:normal;font-size:medium;line-height:normal;font-family:sans-serif;font-variant-ligatures:normal;font-variant-position:normal;font-variant-caps:normal;font-variant-numeric:normal;font-variant-alternates:normal;font-feature-settings:normal;text-indent:0;text-align:start;text-decoration:none;text-decoration-line:none;text-decoration-style:solid;text-decoration-color:#000000;letter-spacing:normal;word-spacing:normal;text-transform:none;writing-mode:lr-tb;direction:ltr;text-orientation:mixed;dominant-baseline:auto;baseline-shift:baseline;text-anchor:start;white-space:normal;shape-padding:0;clip-rule:nonzero;display:inline;overflow:visible;visibility:visible;opacity:1;isolation:auto;mix-blend-mode:normal;color-interpolation:sRGB;color-interpolation-filters:linearRGB;solid-color:#000000;solid-opacity:1;fill:#ff1e67;fill-opacity:1;fill-rule:nonzero;stroke:none;stroke-width:18;stroke-linecap:square;stroke-linejoin:round;stroke-miterlimit:4;stroke-dasharray:18, 36;stroke-dashoffset:0;stroke-opacity:1;color-rendering:auto;image-rendering:auto;shape-rendering:auto;text-rendering:auto;enable-background:accumulate"
         d="m 166.93945,66.986328 c -3.30081,-0.01624 -6.60285,0.132229 -9.89062,0.447266 l -8.95899,0.859375 1.7168,17.917969 8.95898,-0.859376 c 5.36984,-0.514541 10.80036,-0.486472 16.16797,0.08008 l 8.94922,0.945312 1.89063,-17.900391 -8.95117,-0.947265 c -3.28304,-0.346523 -6.582,-0.526724 -9.88282,-0.54297 z m -39.58203,7.603516 -7.93164,4.255859 c -5.81072,3.119698 -11.30591,6.814514 -16.39062,11.019531 l -6.937504,5.736328 11.472654,13.871098 6.93555,-5.73633 c 4.16271,-3.44254 8.67379,-6.474724 13.43555,-9.031252 l 7.93164,-4.257812 z m 79.08203,0.335937 -8.63476,15.794922 7.89453,4.318359 c 4.73273,2.58849 9.20989,5.658598 13.33398,9.140628 l 6.87696,5.80664 11.61328,-13.753908 -6.87696,-5.804688 c -5.04483,-4.259417 -10.515,-8.011865 -16.31054,-11.18164 z M 82.451172,112.45508 78.291016,120.4375 c -6.882772,15.96807 -11.10921,31.72604 -11.111369,46.22852 0,54.83892 44.647413,99.48828 99.486333,99.48828 0.15274,0 0.30445,-0.005 0.45703,-0.006 v -18 c -0.15266,8.3e-4 -0.30417,0.006 -0.45703,0.006 -45.111,0 -81.486333,-36.37729 -81.486333,-81.48828 0.329652,-12.84157 3.904191,-27.67193 9.072306,-37.90821 l 4.160156,-7.98047 z m 168.533208,0.7539 -16.02735,8.19532 4.09961,8.01172 c 2.46091,4.81235 4.44705,9.87339 5.91016,15.07226 l 2.4375,8.66406 17.32617,-4.87695 -2.4375,-8.66211 c -1.78777,-6.35251 -4.20833,-12.51896 -7.21094,-18.39062 z"
         sodipodi:nodetypes="sccccccccscccccccccccccccccccccsccsccccccccccccc"
         inkscape:connector-curvature="0" />
      <path
         id="path967"
         style="color:#000000;font-style:normal;font-variant:normal;font-weight:normal;font-stretch:normal;font-size:medium;line-height:normal;font-family:sans-serif;font-variant-ligatures:normal;font-variant-position:normal;font-variant-caps:normal;font-variant-numeric:normal;font-variant-alternates:normal;font-feature-settings:normal;text-indent:0;text-align:start;text-decoration:none;text-decoration-line:none;text-decoration-style:solid;text-decoration-color:#000000;letter-spacing:normal;word-spacing:normal;text-transform:none;writing-mode:lr-tb;direction:ltr;text-orientation:mixed;dominant-baseline:auto;baseline-shift:baseline;text-anchor:start;white-space:normal;shape-padding:0;clip-rule:nonzero;display:inline;overflow:visible;visibility:visible;isolation:auto;mix-blend-mode:normal;color-interpolation:sRGB;color-interpolation-filters:linearRGB;solid-color:#000000;solid-opacity:1;fill:#ff1e67;fill-opacity:1;fill-rule:nonzero;stroke:none;stroke-width:16;stroke-linecap:butt;stroke-linejoin:miter;stroke-miterlimit:4;stroke-dasharray:none;stroke-dashoffset:0;stroke-opacity:1;color-rendering:auto;image-rendering:auto;shape-rendering:auto;text-rendering:auto;enable-background:accumulate"
         d="m 159.12305,99.111328 v 63.777342 l -44.94336,44.94141 11.24023,11.24219 49.6758,-51.71168 0.0254,-68.249262 z"
         sodipodi:nodetypes="ccccccc"
         inkscape:connector-curvature="0" />
      <path
         sodipodi:type="star"
         style="fill:#ff1e67;fill-opacity:1;stroke:none;stroke-width:16;stroke-linecap:square;stroke-linejoin:round;stroke-miterlimit:4;stroke-dasharray:none;stroke-dashoffset:0;stroke-opacity:1"
         id="path978"
         sodipodi:sides="3"
         sodipodi:cx="-253.3036"
         sodipodi:cy="-180.27835"
         sodipodi:r1="41.772072"
         sodipodi:r2="20.886038"
         sodipodi:arg1="0.52359878"
         sodipodi:arg2="1.5707963"
         inkscape:flatsided="false"
         inkscape:rounded="0"
         inkscape:randomized="0"
         d="m -217.12793,-159.39231 -36.17567,0 -36.17568,-1e-5 18.08784,-31.32905 18.08784,-31.32905 18.08783,31.32905 z"
         inkscape:transform-center-y="5.8243435"
         transform="matrix(-0.75967053,0,0,-0.55772551,62.876315,66.180336)"
         inkscape:transform-center-x="5.9507803e-06" />
    </g>
    <path
       fill="#ffffff"
       d="M 61,11 C 81.943,11 99.817,24.139 106.83,42.623 98.14,34.777 86.627,30 74,30 46.938,30 25,51.938 25,79 25,85.12 26.122,90.976 28.17,96.377 18.24,87.41 12,74.434 12,60 12,32.938 33.938,11 61,11 Z"
       opacity="0.433"
       style="mix-blend-mode:soft-light;fill-rule:evenodd"
       id="path1725" />
  </g>
</svg>
