<?xml version="1.0" encoding="UTF-8" standalone="no"?>
<svg xmlns:dc="http://purl.org/dc/elements/1.1/" xmlns:cc="http://creativecommons.org/ns#" xmlns:rdf="http://www.w3.org/1999/02/22-rdf-syntax-ns#" xmlns:svg="http://www.w3.org/2000/svg" xmlns="http://www.w3.org/2000/svg" xmlns:sodipodi="http://sodipodi.sourceforge.net/DTD/sodipodi-0.dtd" xmlns:inkscape="http://www.inkscape.org/namespaces/inkscape" inkscape:version="0.92.4 (5da689c313, 2019-01-14)" sodipodi:docname="pl.svg" viewBox="0 0 511.99999 511.99999" height="512" width="512" id="svg2" version="1.1">
  <metadata id="metadata8">
    <rdf:RDF>
      <cc:Work rdf:about="">
        <dc:format>image/svg+xml</dc:format>
        <dc:type rdf:resource="http://purl.org/dc/dcmitype/StillImage"/>
        <dc:title/>
      </cc:Work>
    </rdf:RDF>
  </metadata>
  <defs id="defs6"/>
  <sodipodi:namedview inkscape:current-layer="g10" inkscape:window-maximized="1" inkscape:window-y="-8" inkscape:window-x="-8" inkscape:cy="98.45874" inkscape:cx="45.354499" inkscape:zoom="2.8284271" inkscape:guide-bbox="true" showguides="true" showgrid="false" id="namedview4" inkscape:window-height="1017" inkscape:window-width="1920" inkscape:pageshadow="2" inkscape:pageopacity="0" guidetolerance="10" gridtolerance="10" objecttolerance="10" borderopacity="1" bordercolor="#666666" pagecolor="#ffffff"/>
  <g id="g10" inkscape:label="Image" inkscape:groupmode="layer" transform="translate(0,412)">
    <g transform="matrix(2.374707,0,0,2.374707,-159.53198,-551.55426)" id="g1035">
      <path id="path895" style="color:#000000;font-style:normal;font-variant:normal;font-weight:normal;font-stretch:normal;font-size:medium;line-height:normal;font-family:sans-serif;font-variant-ligatures:normal;font-variant-position:normal;font-variant-caps:normal;font-variant-numeric:normal;font-variant-alternates:normal;font-feature-settings:normal;text-indent:0;text-align:start;text-decoration:none;text-decoration-line:none;text-decoration-style:solid;text-decoration-color:#000000;letter-spacing:normal;word-spacing:normal;text-transform:none;writing-mode:lr-tb;direction:ltr;text-orientation:mixed;dominant-baseline:auto;baseline-shift:baseline;text-anchor:start;white-space:normal;shape-padding:0;clip-rule:nonzero;display:inline;overflow:visible;visibility:visible;opacity:1;isolation:auto;mix-blend-mode:normal;color-interpolation:sRGB;color-interpolation-filters:linearRGB;solid-color:#000000;solid-opacity:1;vector-effect:none;fill:#e88d05;fill-opacity:1;fill-rule:nonzero;stroke:none;stroke-width:18;stroke-linecap:square;stroke-linejoin:round;stroke-miterlimit:4;stroke-dasharray:18, 36;stroke-dashoffset:0;stroke-opacity:1;color-rendering:auto;image-rendering:auto;shape-rendering:auto;text-rendering:auto;enable-background:accumulate" d="m 166.93945,66.986328 c -3.30081,-0.01624 -6.60285,0.132229 -9.89062,0.447266 l -8.95899,0.859375 1.7168,17.917969 8.95898,-0.859376 c 5.36984,-0.514541 10.80036,-0.486472 16.16797,0.08008 l 8.94922,0.945312 1.89063,-17.900391 -8.95117,-0.947265 c -3.28304,-0.346523 -6.582,-0.526724 -9.88282,-0.54297 z m -39.58203,7.603516 -7.93164,4.255859 c -5.81072,3.119698 -11.30591,6.814514 -16.39062,11.019531 l -6.937504,5.736328 11.472654,13.871098 6.93555,-5.73633 c 4.16271,-3.44254 8.67379,-6.474724 13.43555,-9.031252 l 7.93164,-4.257812 z m 79.08203,0.335937 -8.63476,15.794922 7.89453,4.318359 c 4.73273,2.58849 9.20989,5.658598 13.33398,9.140628 l 6.87696,5.80664 11.61328,-13.753908 -6.87696,-5.804688 c -5.04483,-4.259417 -10.515,-8.011865 -16.31054,-11.18164 z M 82.451172,112.45508 78.291016,120.4375 c -6.882772,15.96807 -11.10921,31.72604 -11.111369,46.22852 0,54.83892 44.647413,99.48828 99.486333,99.48828 0.15274,0 0.30445,-0.005 0.45703,-0.006 v -18 c -0.15266,8.3e-4 -0.30417,0.006 -0.45703,0.006 -45.111,0 -81.486333,-36.37729 -81.486333,-81.48828 0.329652,-12.84157 3.904191,-27.67193 9.072306,-37.90821 l 4.160156,-7.98047 z m 168.533208,0.7539 -16.02735,8.19532 4.09961,8.01172 c 2.46091,4.81235 4.44705,9.87339 5.91016,15.07226 l 2.4375,8.66406 17.32617,-4.87695 -2.4375,-8.66211 c -1.78777,-6.35251 -4.20833,-12.51896 -7.21094,-18.39062 z" sodipodi:nodetypes="sccccccccscccccccccccccccccccccsccsccccccccccccc" inkscape:connector-curvature="0"/>
      <path id="path967" style="color:#000000;font-style:normal;font-variant:normal;font-weight:normal;font-stretch:normal;font-size:medium;line-height:normal;font-family:sans-serif;font-variant-ligatures:normal;font-variant-position:normal;font-variant-caps:normal;font-variant-numeric:normal;font-variant-alternates:normal;font-feature-settings:normal;text-indent:0;text-align:start;text-decoration:none;text-decoration-line:none;text-decoration-style:solid;text-decoration-color:#000000;letter-spacing:normal;word-spacing:normal;text-transform:none;writing-mode:lr-tb;direction:ltr;text-orientation:mixed;dominant-baseline:auto;baseline-shift:baseline;text-anchor:start;white-space:normal;shape-padding:0;clip-rule:nonzero;display:inline;overflow:visible;visibility:visible;isolation:auto;mix-blend-mode:normal;color-interpolation:sRGB;color-interpolation-filters:linearRGB;solid-color:#000000;solid-opacity:1;vector-effect:none;fill:#e88d05;fill-opacity:1;fill-rule:nonzero;stroke:none;stroke-width:16;stroke-linecap:butt;stroke-linejoin:miter;stroke-miterlimit:4;stroke-dasharray:none;stroke-dashoffset:0;stroke-opacity:1;color-rendering:auto;image-rendering:auto;shape-rendering:auto;text-rendering:auto;enable-background:accumulate" d="m 159.12305,99.111328 v 63.777342 l -44.94336,44.94141 11.24023,11.24219 49.6758,-51.71168 0.0254,-68.249262 z" sodipodi:nodetypes="ccccccc" inkscape:connector-curvature="0"/>
      <path sodipodi:type="star" style="fill:#e88d05;fill-opacity:1;stroke:none;stroke-width:16;stroke-linecap:square;stroke-linejoin:round;stroke-miterlimit:4;stroke-dasharray:none;stroke-dashoffset:0;stroke-opacity:1" id="path978" sodipodi:sides="3" sodipodi:cx="-253.3036" sodipodi:cy="-180.27835" sodipodi:r1="41.772072" sodipodi:r2="20.886038" sodipodi:arg1="0.52359878" sodipodi:arg2="1.5707963" inkscape:flatsided="false" inkscape:rounded="0" inkscape:randomized="0" d="m -217.12793,-159.39231 -36.17567,0 -36.17568,-1e-5 18.08784,-31.32905 18.08784,-31.32905 18.08783,31.32905 z" inkscape:transform-center-y="5.8243435" transform="matrix(-0.75967053,0,0,-0.55772551,62.876315,66.180336)" inkscape:transform-center-x="5.9507803e-06"/>
    </g>
  </g>
</svg>